<?xml version="1.0" encoding="utf-8"?>
<!-- Generator: Adobe Illustrator 19.1.0, SVG Export Plug-In . SVG Version: 6.00 Build 0)  -->
<svg version="1.1" id="Layer_1" xmlns="http://www.w3.org/2000/svg" xmlns:xlink="http://www.w3.org/1999/xlink" x="0px" y="0px"
	 viewBox="0 0 270 97.5" style="enable-background:new 0 0 270 97.5;" xml:space="preserve">
<style type="text/css">
	.st0{fill:#E61B23;}
	.st1{fill:#D41920;}
	.st2{fill:#F5CD93;}
	.st3{fill:#FA8764;}
	.st4{fill:#EB845E;}
	.st5{opacity:0.5;}
	.st6{fill:#D9C8C3;}
	.st7{fill:#D91A21;}
	.st8{fill:#CC181F;}
	.st9{fill:#E61C23;}
</style>
<g>
	<path class="st0" d="M128.9,97.5H95.2c-9.5,0-8.5-7-10.3-13.8c-1-4.1-5.9-6.7-7.2-8.4c-5.2-7,19.9-5.1,23.8-5.1h29.8
		c5,0,28.9,7.8,21.3,9.7c-3.6,0.9-8.3,5.7-9.5,8.1C139.4,95.1,135.4,97.5,128.9,97.5z"/>
	<path class="st1" d="M116.1,83.8c-12.3-0.3-31.9-1.8-32.4-2.5c-1.8-2.7-5-4.6-6-5.9c-5.2-7,19.9-5.1,23.8-5.1h29.8
		c5,0,28.9,7.8,21.3,9.7c-1.5,0.4-3.2,1.4-4.8,2.7C147.4,83,134.1,84.2,116.1,83.8z"/>
	<g>
		<path class="st2" d="M93.3,90.7c0,0.7-0.4,1.2-0.9,1.2h-2.4c-0.5,0-0.9-0.5-0.9-1.2v-4c0-0.7,0.4-1.2,0.9-1.2h2.4
			c0.5,0,0.9,0.5,0.9,1.2V90.7z"/>
		<path class="st2" d="M99.7,90.7c0,0.7-0.4,1.2-0.9,1.2h-2.4c-0.5,0-0.9-0.5-0.9-1.2v-4c0-0.7,0.4-1.2,0.9-1.2h2.4
			c0.5,0,0.9,0.5,0.9,1.2V90.7z"/>
		<path class="st2" d="M105.9,90.7c0,0.7-0.4,1.2-0.9,1.2h-2.4c-0.5,0-0.9-0.5-0.9-1.2v-4c0-0.7,0.4-1.2,0.9-1.2h2.4
			c0.5,0,0.9,0.5,0.9,1.2V90.7z"/>
		<path class="st2" d="M113.8,89c0,0.9-0.7,1.6-1.6,1.6c-0.9,0-1.6-0.7-1.6-1.6c0-0.9,0.7-1.6,1.6-1.6C113,87.4,113.8,88.1,113.8,89
			z"/>
		<path class="st2" d="M120.3,89c0,0.9-0.7,1.6-1.6,1.6c-0.9,0-1.6-0.7-1.6-1.6c0-0.9,0.7-1.6,1.6-1.6
			C119.6,87.4,120.3,88.1,120.3,89z"/>
		<path class="st2" d="M126.7,89c0,0.9-0.7,1.6-1.6,1.6c-0.9,0-1.6-0.7-1.6-1.6c0-0.9,0.7-1.6,1.6-1.6C126,87.4,126.7,88.1,126.7,89
			z"/>
		<path class="st2" d="M133.1,89c0,0.9-0.7,1.6-1.6,1.6c-0.9,0-1.6-0.7-1.6-1.6c0-0.9,0.7-1.6,1.6-1.6
			C132.4,87.4,133.1,88.1,133.1,89z"/>
	</g>
	<path class="st3" d="M270,40.8c0,12-72.2,39.8-142.6,39.8C57.1,80.7,0,62.8,0,40.8C0,18.8,57.1,1,127.4,1
		C197.8,1,270,29.6,270,40.8z"/>
	<g>
		<path class="st4" d="M127.5,73.3C57.2,73.3,0,58.7,0,40.8C0,22.9,57.2,8.4,127.5,8.4C197,8.4,270,30.9,270,40.8
			C270,51,198.4,73.3,127.5,73.3z M127.5,9.6C57.8,9.6,1.2,23.6,1.2,40.8c0,17.2,56.6,31.3,126.3,31.3c72.6,0,141.3-22.8,141.3-31.3
			C268.8,32.6,198.5,9.6,127.5,9.6z"/>
		<path class="st4" d="M127.5,65.3C56,65.3,0,54.6,0,40.8c0-13.7,56-24.5,127.5-24.5c69.5,0,142.5,17,142.5,24.5
			C270,49.4,194.5,65.3,127.5,65.3z M127.5,17.5C59,17.5,1.2,28.2,1.2,40.8c0,12.6,57.8,23.3,126.3,23.3
			c71.1,0,141.3-17.1,141.3-23.3C268.8,34.8,196.9,17.5,127.5,17.5z"/>
		<path class="st4" d="M127.5,57.4C64.8,57.4,0,51.2,0,40.8c0-10.4,64.8-16.5,127.5-16.5c67,0,142.5,10.8,142.5,16.5
			c0,4.3-34.6,9-45.2,10.4C193.8,55.1,158.3,57.4,127.5,57.4z M127.5,25.5C51.9,25.5,1.2,33.4,1.2,40.8c0,7.4,50.7,15.3,126.3,15.3
			c70.2,0,140.1-11.2,141.3-15.4C267.1,36.7,196.9,25.5,127.5,25.5z"/>
		<path class="st4" d="M127.5,49.4C76.2,49.4,0,47.1,0,40.8c0-6.3,76.2-8.6,127.5-8.6c30.6,0,66.1,1.1,97.3,3.1
			c13,0.8,24.2,1.7,32.4,2.6c12.9,1.4,12.9,2.1,12.9,2.8c0,0.6,0,2.6-45.3,5.5C193.8,48.3,158.3,49.4,127.5,49.4z M127.5,33.5
			c-74,0-125.1,3.8-126.3,7.4c1.2,3.5,52.2,7.3,126.3,7.3c68.6,0,132.6-5.1,140.7-7.4C259.8,38.5,193.2,33.5,127.5,33.5z"/>
		<path class="st4" d="M127.5,41.4c-35,0-66.8,0-89.7,0c-11.5,0-20.8,0-27.2-0.1c-5.2,0-7.8,0-9.1-0.1c-0.5,0-0.8,0-0.8,0l0-0.1
			c-0.4-0.1-0.4-0.2-0.4-0.3c0-0.2,0-0.2,0.4-0.3l0-0.1c0.1,0,0.3,0,0.8,0c1.3-0.1,3.9-0.1,9.1-0.1c6.4,0,15.7,0,27.2,0
			c23,0,54.7,0,89.7,0c35,0,70.5,0,97.2,0.1c13.4,0,24.5,0,32.4,0.1c3.9,0,7,0,9.1,0c1.3,0,2.1,0,2.7,0c0.3,0,0.5,0,0.5,0l0,0
			c0.4,0.1,0.4,0.2,0.4,0.4c0,0.2,0,0.3-0.4,0.4l0,0c0,0-0.2,0-0.5,0c-0.5,0-1.4,0-2.7,0c-2.1,0-5.2,0-9.1,0c-7.8,0-19,0-32.4,0.1
			C198,41.4,162.5,41.4,127.5,41.4z"/>
	</g>
	<g class="st5">
		<path class="st6" d="M127.4,80.7c70.3,0,142.5-27.8,142.6-39.8H0C0.1,62.9,57.1,80.7,127.4,80.7z"/>
	</g>
	<polygon class="st7" points="253.1,28.1 206.9,28.1 224.3,0 253.1,0 	"/>
	<polygon class="st8" points="253.1,47.2 206.9,47.2 224.3,75.3 253.1,75.3 	"/>
	<polygon class="st9" points="253.1,41.6 206.9,41.6 224.3,53.4 255.4,53.4 	"/>
</g>
</svg>
